Topo_narrow_20160216.ufo
<glyph name="exclam" format="1">
  <advance width="306"/>
  <unicode hex="0021"/>
  <outline>
    <contour>
      <point x="212" y="776" type="line"/>
      <point x="92" y="776" type="line"/>
      <point x="92" y="710" type="line" smooth="yes"/>
      <point x="92" y="559"/>
      <point x="106" y="312"/>
      <point x="110" y="245" type="curve"/>
      <point x="194" y="245" type="line"/>
      <point x="198" y="312"/>
      <point x="212" y="558"/>
      <point x="212" y="710" type="curve" smooth="yes"/>
    </contour>
    <contour>
      <point x="152" y="-12" type="curve" smooth="yes"/>
      <point x="204" y="-12"/>
      <point x="225" y="11"/>
      <point x="225" y="54" type="curve" smooth="yes"/>
      <point x="225" y="97"/>
      <point x="204" y="120"/>
      <point x="152" y="120" type="curve" smooth="yes"/>
      <point x="99" y="120"/>
      <point x="81" y="97"/>
      <point x="81" y="54" type="curve" smooth="yes"/>
      <point x="81" y="11"/>
      <point x="99" y="-12"/>
    </contour>
  </outline>
</glyph>
<glyph name="quotesingle" format="1">
  <advance width="207"/>
  <unicode hex="0027"/>
  <outline>
    <contour>
      <point x="47" y="666" type="line"/>
      <point x="47" y="743" type="line"/>
      <point x="160" y="743" type="line"/>
      <point x="160" y="666" type="line"/>
      <point x="139" y="489" type="line"/>
      <point x="68" y="489" type="line"/>
    </contour>
  </outline>
</glyph>
<glyph name="parenleft" format="1">
  <advance width="325"/>
  <unicode hex="0028"/>
  <outline>
    <contour>
      <point x="268" y="706" type="curve"/>
      <point x="176" y="706" type="line"/>
      <point x="113" y="581"/>
      <point x="74" y="493"/>
      <point x="74" y="333" type="curve" smooth="yes"/>
      <point x="74" y="168"/>
      <point x="113" y="85"/>
      <point x="176" y="-40" type="curve"/>
      <point x="268" y="-40" type="line"/>
      <point x="221" y="85"/>
      <point x="184" y="175"/>
      <point x="184" y="333" type="curve" smooth="yes"/>
      <point x="184" y="486"/>
      <point x="223" y="581"/>
    </contour>
  </outline>
</glyph>
<glyph name="parenright" format="1">
  <advance width="339"/>
  <unicode hex="0029"/>
  <outline>
    <contour>
      <point x="28" y="751" type="line"/>
      <point x="103" y="651"/>
      <point x="168" y="514"/>
      <point x="168" y="364" type="curve"/>
      <point x="168" y="343" type="line"/>
      <point x="168" y="193"/>
      <point x="109" y="45"/>
      <point x="28" y="-75" type="curve"/>
      <point x="127" y="-75" type="line"/>
      <point x="209" y="40"/>
      <point x="279" y="181"/>
      <point x="279" y="348" type="curve"/>
      <point x="279" y="359" type="line"/>
      <point x="279" y="526"/>
      <point x="207" y="656"/>
      <point x="130" y="751" type="curve"/>
    </contour>
  </outline>
</glyph>
<glyph name="plus" format="1">
  <advance width="439"/>
  <unicode hex="002B"/>
  <outline>
    <contour>
      <point x="409" y="362" type="line"/>
      <point x="30" y="362" type="line"/>
      <point x="30" y="277" type="line"/>
      <point x="409" y="277" type="line"/>
    </contour>
    <contour>
      <point x="175" y="116" type="line"/>
      <point x="264" y="116" type="line"/>
      <point x="264" y="523" type="line"/>
      <point x="264" y="523"/>
      <point x="175" y="523"/>
      <point x="175" y="523" type="curve"/>
    </contour>
  </outline>
</glyph>
<glyph name="two" format="1">
  <advance width="502"/>
  <unicode hex="0032"/>
  <outline>
    <contour>
      <point x="70" y="667" type="curve"/>
      <point x="70" y="557" type="line"/>
      <point x="112" y="600"/>
      <point x="167" y="631"/>
      <point x="230" y="631" type="curve" smooth="yes"/>
      <point x="302" y="631"/>
      <point x="333" y="583"/>
      <point x="333" y="531" type="curve" smooth="yes"/>
      <point x="333" y="465"/>
      <point x="300" y="430"/>
      <point x="238" y="367" type="curve" smooth="yes"/>
      <point x="136" y="262"/>
      <point x="44" y="177"/>
      <point x="44" y="31" type="curve" smooth="yes"/>
      <point x="44" y="0" type="line"/>
      <point x="435" y="0" type="line"/>
      <point x="435" y="92" type="line"/>
      <point x="86" y="92" type="line"/>
      <point x="136" y="11" type="line"/>
      <point x="136" y="120"/>
      <point x="190" y="185"/>
      <point x="312" y="307" type="curve" smooth="yes"/>
      <point x="381" y="376"/>
      <point x="438" y="445"/>
      <point x="438" y="531" type="curve" smooth="yes"/>
      <point x="438" y="653"/>
      <point x="350" y="721"/>
      <point x="249" y="721" type="curve" smooth="yes"/>
      <point x="183" y="721"/>
      <point x="119" y="701"/>
    </contour>
  </outline>
</glyph>
<glyph name="four" format="1">
  <advance width="556"/>
  <unicode hex="0034"/>
  <outline>
    <contour>
      <point x="248" y="706" type="line"/>
      <point x="23" y="290" type="line"/>
      <point x="23" y="155" type="line"/>
      <point x="525" y="155" type="line"/>
      <point x="525" y="243" type="line"/>
      <point x="81" y="243" type="line"/>
      <point x="90" y="205" type="line"/>
      <point x="344" y="691" type="line"/>
      <point x="327" y="691" type="line"/>
      <point x="327" y="0" type="line"/>
      <point x="425" y="0" type="line"/>
      <point x="425" y="706" type="line"/>
    </contour>
  </outline>
</glyph>
<glyph name="five" format="1">
  <advance width="503"/>
  <unicode hex="0035"/>
  <outline>
    <contour>
      <point x="420" y="706" type="line"/>
      <point x="132" y="706" type="line"/>
      <point x="132" y="612" type="line"/>
      <point x="420" y="612" type="line"/>
    </contour>
    <contour>
      <point x="439" y="383"/>
      <point x="350" y="468"/>
      <point x="161" y="434" type="curve" smooth="yes"/>
      <point x="139" y="430" type="line"/>
      <point x="119" y="406" type="line"/>
      <point x="178" y="406" type="line"/>
      <point x="178" y="633" type="line"/>
      <point x="139" y="706" type="line"/>
      <point x="81" y="706" type="line"/>
      <point x="81" y="328" type="line"/>
      <point x="107" y="343"/>
      <point x="143" y="362"/>
      <point x="199" y="362" type="curve" smooth="yes"/>
      <point x="279" y="362"/>
      <point x="336" y="323"/>
      <point x="336" y="238" type="curve" smooth="yes"/>
      <point x="336" y="123"/>
      <point x="277" y="72"/>
      <point x="182" y="72" type="curve" smooth="yes"/>
      <point x="116" y="72"/>
      <point x="78" y="92"/>
      <point x="34" y="118" type="curve"/>
      <point x="34" y="17" type="line"/>
      <point x="81" y="-2"/>
      <point x="121" y="-12"/>
      <point x="183" y="-12" type="curve" smooth="yes"/>
      <point x="332" y="-12"/>
      <point x="439" y="70"/>
      <point x="439" y="238" type="curve" smooth="yes"/>
    </contour>
  </outline>
</glyph>
<glyph name="B" format="1">
  <advance width="566"/>
  <unicode hex="0042"/>
  <outline>
    <contour>
      <point x="166" y="382" type="line"/>
      <point x="334" y="382" type="line"/>
      <point x="425" y="382"/>
      <point x="518" y="354"/>
      <point x="518" y="220" type="curve" smooth="yes"/>
      <point x="518" y="73"/>
      <point x="406" y="0"/>
      <point x="256" y="0" type="curve"/>
      <point x="129" y="0" type="line"/>
      <point x="129" y="90" type="line"/>
      <point x="243" y="90" type="line"/>
      <point x="369" y="90"/>
      <point x="413" y="128"/>
      <point x="413" y="220" type="curve" smooth="yes"/>
      <point x="413" y="290"/>
      <point x="389" y="315"/>
      <point x="291" y="315" type="curve"/>
      <point x="166" y="315" type="line"/>
    </contour>
    <contour>
      <point x="183" y="706"/>
      <point x="183" y="0"/>
      <point x="183" y="0" type="curve"/>
      <point x="80" y="0" type="line"/>
      <point x="80" y="0"/>
      <point x="80" y="706"/>
      <point x="80" y="706" type="curve"/>
      <point x="183" y="706" type="line"/>
    </contour>
    <contour>
      <point x="157" y="706" type="line"/>
      <point x="291" y="706" type="line"/>
      <point x="423" y="706"/>
      <point x="479" y="642"/>
      <point x="479" y="528" type="curve" smooth="yes"/>
      <point x="479" y="392"/>
      <point x="351" y="340"/>
      <point x="215" y="340" type="curve"/>
      <point x="90" y="340" type="line"/>
      <point x="90" y="397" type="line"/>
      <point x="210" y="397" type="line"/>
      <point x="325" y="397"/>
      <point x="374" y="418"/>
      <point x="374" y="528" type="curve" smooth="yes"/>
      <point x="374" y="592"/>
      <point x="344" y="614"/>
      <point x="246" y="614" type="curve"/>
      <point x="157" y="614" type="line"/>
    </contour>
  </outline>
</glyph>
<glyph name="F" format="1">
  <advance width="481"/>
  <unicode hex="0046"/>
  <outline>
    <contour>
      <point x="183" y="0"/>
      <point x="183" y="706"/>
      <point x="183" y="706" type="curve"/>
      <point x="80" y="706" type="line"/>
      <point x="80" y="706"/>
      <point x="80" y="0"/>
      <point x="80" y="0" type="curve"/>
      <point x="183" y="0" type="line"/>
    </contour>
    <contour>
      <point x="409" y="308"/>
      <point x="409" y="398"/>
      <point x="409" y="398" type="curve"/>
      <point x="174" y="398" type="line"/>
      <point x="174" y="398"/>
      <point x="174" y="308"/>
      <point x="174" y="308" type="curve"/>
      <point x="409" y="308" type="line"/>
    </contour>
    <contour>
      <point x="437" y="614"/>
      <point x="437" y="706"/>
      <point x="437" y="706" type="curve"/>
      <point x="175" y="706" type="line"/>
      <point x="175" y="706"/>
      <point x="175" y="614"/>
      <point x="175" y="614" type="curve"/>
      <point x="437" y="614" type="line"/>
    </contour>
  </outline>
</glyph>
<glyph name="G" format="1">
  <advance width="624"/>
  <unicode hex="0047"/>
  <outline>
    <contour>
      <point x="535" y="579" type="line"/>
      <point x="485" y="605"/>
      <point x="447" y="629"/>
      <point x="346" y="629" type="curve"/>
      <point x="240" y="629"/>
      <point x="176" y="566"/>
      <point x="176" y="374" type="curve" smooth="yes"/>
      <point x="176" y="143"/>
      <point x="249" y="74"/>
      <point x="350" y="74" type="curve"/>
      <point x="392" y="74"/>
      <point x="423" y="81"/>
      <point x="446" y="89" type="curve"/>
      <point x="446" y="258" type="line"/>
      <point x="446" y="300"/>
      <point x="450" y="321"/>
      <point x="450" y="331" type="curve"/>
      <point x="546" y="335" type="line"/>
      <point x="546" y="42" type="line"/>
      <point x="479" y="6"/>
      <point x="425" y="-12"/>
      <point x="350" y="-12" type="curve"/>
      <point x="174" y="-12"/>
      <point x="69" y="94"/>
      <point x="69" y="374" type="curve" smooth="yes"/>
      <point x="69" y="624"/>
      <point x="163" y="721"/>
      <point x="343" y="721" type="curve" smooth="yes"/>
      <point x="425" y="721"/>
      <point x="484" y="710"/>
      <point x="535" y="686" type="curve"/>
    </contour>
    <contour>
      <point x="546" y="382"/>
      <point x="546" y="296"/>
      <point x="546" y="296" type="curve"/>
      <point x="345" y="296" type="line"/>
      <point x="345" y="296"/>
      <point x="345" y="382"/>
      <point x="345" y="382" type="curve"/>
      <point x="546" y="382" type="line"/>
    </contour>
  </outline>
</glyph>
<glyph name="J" format="1">
  <advance width="423"/>
  <unicode hex="004A"/>
  <outline>
    <contour>
      <point x="323" y="706"/>
      <point x="323" y="614"/>
      <point x="323" y="614" type="curve"/>
      <point x="71" y="614" type="line"/>
      <point x="71" y="614"/>
      <point x="71" y="706"/>
      <point x="71" y="706" type="curve"/>
      <point x="323" y="706" type="line"/>
    </contour>
    <contour>
      <point x="4" y="117" type="line"/>
      <point x="38" y="100"/>
      <point x="78" y="76"/>
      <point x="128" y="76" type="curve"/>
      <point x="204" y="76"/>
      <point x="230" y="123"/>
      <point x="230" y="222" type="curve" smooth="yes"/>
      <point x="230.0" y="706.0" type="line"/>
      <point x="333.0" y="706.0" type="line"/>
      <point x="333" y="222" type="line" smooth="yes"/>
      <point x="333" y="34"/>
      <point x="255" y="-12"/>
      <point x="130" y="-12" type="curve"/>
      <point x="79" y="-12"/>
      <point x="41" y="3"/>
      <point x="4" y="20" type="curve"/>
    </contour>
  </outline>
</glyph>
<glyph name="Y" format="1">
  <advance width="500"/>
  <unicode hex="0059"/>
  <outline>
    <contour>
      <point x="132" y="706" type="line"/>
      <point x="28" y="706" type="line"/>
      <point x="209" y="230" type="line"/>
      <point x="307" y="230" type="line"/>
      <point x="488" y="706" type="line"/>
      <point x="384" y="706" type="line"/>
      <point x="208" y="201" type="line"/>
      <point x="308" y="201" type="line"/>
    </contour>
    <contour>
      <point x="310" y="0"/>
      <point x="310" y="320"/>
      <point x="310" y="320" type="curve"/>
      <point x="206" y="320" type="line"/>
      <point x="206" y="320"/>
      <point x="206" y="0"/>
      <point x="206" y="0" type="curve"/>
      <point x="310" y="0" type="line"/>
    </contour>
  </outline>
</glyph>
<glyph name="grave" format="1">
  <advance width="264"/>
  <unicode hex="0060"/>
  <outline>
    <contour>
      <point x="12" y="732" type="line"/>
      <point x="135" y="732" type="line"/>
      <point x="135" y="732"/>
      <point x="230" y="589"/>
      <point x="230" y="589" type="curve"/>
      <point x="148" y="589" type="line"/>
    </contour>
  </outline>
</glyph>
<glyph name="i" format="1">
  <advance width="268"/>
  <unicode hex="0069"/>
  <outline>
    <contour>
      <point x="133" y="613" type="curve" smooth="yes"/>
      <point x="184" y="613"/>
      <point x="208" y="634"/>
      <point x="208" y="674" type="curve" smooth="yes"/>
      <point x="208" y="714"/>
      <point x="184" y="735"/>
      <point x="133" y="735" type="curve" smooth="yes"/>
      <point x="81" y="735"/>
      <point x="59" y="714"/>
      <point x="59" y="674" type="curve" smooth="yes"/>
      <point x="59" y="634"/>
      <point x="82" y="613"/>
    </contour>
    <contour>
      <point x="84" y="0" type="line"/>
      <point x="184" y="0" type="line"/>
      <point x="184" y="526" type="line"/>
      <point x="184" y="526"/>
      <point x="84" y="526"/>
      <point x="84" y="526" type="curve"/>
    </contour>
  </outline>
</glyph>
<glyph name="x" format="1">
  <advance width="426"/>
  <unicode hex="0078"/>
  <outline>
    <contour>
      <point x="313" y="0" type="line"/>
      <point x="423" y="0" type="line"/>
      <point x="271" y="273" type="line"/>
      <point x="183" y="273" type="line"/>
      <point x="233" y="159" type="line"/>
    </contour>
    <contour>
      <point x="113" y="0" type="line"/>
      <point x="193" y="159" type="line"/>
      <point x="243" y="273" type="line"/>
      <point x="155" y="273" type="line"/>
      <point x="3" y="0" type="line"/>
    </contour>
    <contour>
      <point x="132" y="526" type="line"/>
      <point x="19" y="526" type="line"/>
      <point x="155" y="258" type="line"/>
      <point x="236" y="258" type="line"/>
      <point x="197" y="368" type="line"/>
    </contour>
    <contour>
      <point x="294" y="526" type="line"/>
      <point x="229" y="368" type="line"/>
      <point x="190" y="258" type="line"/>
      <point x="271" y="258" type="line"/>
      <point x="407" y="526" type="line"/>
    </contour>
  </outline>
</glyph>
<glyph name="z" format="1">
  <advance width="441"/>
  <unicode hex="007A"/>
  <outline>
    <contour>
      <point x="383" y="85" type="line"/>
      <point x="81" y="85" type="line"/>
      <point x="60" y="65" type="line"/>
      <point x="60" y="0" type="line"/>
      <point x="383" y="0" type="line"/>
    </contour>
    <contour>
      <point x="322" y="437" type="line"/>
      <point x="60" y="150" type="line"/>
      <point x="60" y="63" type="line"/>
      <point x="120" y="63" type="line"/>
      <point x="120" y="76" type="line"/>
      <point x="380" y="367" type="line"/>
      <point x="380" y="445" type="line"/>
      <point x="322" y="445" type="line"/>
    </contour>
    <contour>
      <point x="380" y="526" type="line"/>
      <point x="54" y="526" type="line"/>
      <point x="54" y="437" type="line"/>
      <point x="375" y="437" type="line"/>
      <point x="380" y="443" type="line"/>
    </contour>
  </outline>
</glyph>
<glyph name="dieresis" format="1">
  <advance width="500"/>
  <unicode hex="00A8"/>
  <outline>
    <contour>
      <point x="317" y="613" type="curve" smooth="yes"/>
      <point x="368" y="613"/>
      <point x="392" y="634"/>
      <point x="392" y="674" type="curve" smooth="yes"/>
      <point x="392" y="714"/>
      <point x="368" y="735"/>
      <point x="317" y="735" type="curve" smooth="yes"/>
      <point x="265" y="735"/>
      <point x="243" y="714"/>
      <point x="243" y="674" type="curve" smooth="yes"/>
      <point x="243" y="634"/>
      <point x="266" y="613"/>
    </contour>
    <contour>
      <point x="129" y="613" type="curve" smooth="yes"/>
      <point x="180" y="613"/>
      <point x="204" y="634"/>
      <point x="204" y="674" type="curve" smooth="yes"/>
      <point x="204" y="714"/>
      <point x="180" y="735"/>
      <point x="129" y="735" type="curve" smooth="yes"/>
      <point x="77" y="735"/>
      <point x="55" y="714"/>
      <point x="55" y="674" type="curve" smooth="yes"/>
      <point x="55" y="634"/>
      <point x="78" y="613"/>
    </contour>
  </outline>
</glyph>
<glyph name="plusminus" format="1">
  <advance width="500"/>
  <unicode hex="00B1"/>
  <outline>
    <contour>
      <point x="409" y="451" type="line"/>
      <point x="30" y="451" type="line"/>
      <point x="30" y="366" type="line"/>
      <point x="409" y="366" type="line"/>
    </contour>
    <contour>
      <point x="175" y="211" type="line"/>
      <point x="264" y="211" type="line"/>
      <point x="264" y="612" type="line"/>
      <point x="264" y="612"/>
      <point x="175" y="612"/>
      <point x="175" y="612" type="curve"/>
    </contour>
    <contour>
      <point x="409" y="163" type="line"/>
      <point x="30" y="163" type="line"/>
      <point x="30" y="78" type="line"/>
      <point x="409" y="78" type="line"/>
    </contour>
  </outline>
</glyph>
<glyph name="Agrave" format="1">
  <advance width="531"/>
  <unicode hex="00C0"/>
  <outline>
    <contour>
      <point x="117" y="839" type="line"/>
      <point x="253" y="696" type="line"/>
      <point x="335" y="696" type="line"/>
      <point x="335" y="696"/>
      <point x="240" y="839"/>
      <point x="240" y="839" type="curve"/>
    </contour>
    <component base="A"/>
  </outline>
</glyph>
<glyph name="Aacute" format="1">
  <advance width="531"/>
  <unicode hex="00C1"/>
  <outline>
    <contour>
      <point x="420" y="839" type="line"/>
      <point x="297" y="839" type="line"/>
      <point x="297" y="839"/>
      <point x="202" y="696"/>
      <point x="202" y="696" type="curve"/>
      <point x="284" y="696" type="line"/>
    </contour>
    <component base="A"/>
  </outline>
</glyph>
<glyph name="Ecircumflex" format="1">
  <advance width="496"/>
  <unicode hex="00CA"/>
  <outline>
    <contour>
      <point x="437" y="614"/>
      <point x="437" y="706"/>
      <point x="437" y="706" type="curve"/>
      <point x="175" y="706" type="line"/>
      <point x="175" y="706"/>
      <point x="175" y="614"/>
      <point x="175" y="614" type="curve"/>
      <point x="437" y="614" type="line"/>
    </contour>
    <contour>
      <point x="449" y="0"/>
      <point x="449" y="92"/>
      <point x="449" y="92" type="curve"/>
      <point x="175" y="92" type="line"/>
      <point x="175" y="92"/>
      <point x="175" y="0"/>
      <point x="175" y="0" type="curve"/>
      <point x="449" y="0" type="line"/>
    </contour>
    <contour>
      <point x="412" y="308"/>
      <point x="412" y="398"/>
      <point x="412" y="398" type="curve"/>
      <point x="175" y="398" type="line"/>
      <point x="175" y="398"/>
      <point x="175" y="308"/>
      <point x="175" y="308" type="curve"/>
      <point x="412" y="308" type="line"/>
    </contour>
    <contour>
      <point x="183" y="0"/>
      <point x="183" y="706"/>
      <point x="183" y="706" type="curve"/>
      <point x="80" y="706" type="line"/>
      <point x="80" y="706"/>
      <point x="80" y="0"/>
      <point x="80" y="0" type="curve"/>
      <point x="183" y="0" type="line"/>
    </contour>
    <component base="circumflex" xOffset="89" yOffset="110"/>
  </outline>
</glyph>
<glyph name="Igrave" format="1">
  <advance width="303"/>
  <unicode hex="00CC"/>
  <outline>
    <contour>
      <point x="-8" y="839" type="line"/>
      <point x="128" y="696" type="line"/>
      <point x="210" y="696" type="line"/>
      <point x="210" y="696"/>
      <point x="115" y="839"/>
      <point x="115" y="839" type="curve"/>
    </contour>
    <component base="I"/>
  </outline>
</glyph>
<glyph name="Yacute" format="1">
  <advance width="500"/>
  <unicode hex="00DD"/>
  <outline>
    <contour>
      <point x="310" y="0"/>
      <point x="310" y="320"/>
      <point x="310" y="320" type="curve"/>
      <point x="206" y="320" type="line"/>
      <point x="206" y="320"/>
      <point x="206" y="0"/>
      <point x="206" y="0" type="curve"/>
      <point x="310" y="0" type="line"/>
    </contour>
    <contour>
      <point x="132" y="706" type="line"/>
      <point x="28" y="706" type="line"/>
      <point x="209" y="230" type="line"/>
      <point x="307" y="230" type="line"/>
      <point x="488" y="706" type="line"/>
      <point x="384" y="706" type="line"/>
      <point x="208" y="201" type="line"/>
      <point x="308" y="201" type="line"/>
    </contour>
    <component base="acute" xOffset="191" yOffset="107"/>
  </outline>
</glyph>
<glyph name="aring" format="1">
  <advance width="469"/>
  <unicode hex="00E5"/>
  <outline>
    <contour>
      <point x="172" y="538"/>
      <point x="127" y="527"/>
      <point x="86" y="517" type="curve"/>
      <point x="86" y="416" type="line"/>
      <point x="123" y="436"/>
      <point x="161" y="451"/>
      <point x="211" y="451" type="curve" smooth="yes"/>
      <point x="274" y="451"/>
      <point x="300" y="423"/>
      <point x="300" y="349" type="curve"/>
      <point x="300" y="129" type="line" smooth="yes"/>
      <point x="300" y="125"/>
      <point x="301" y="107"/>
      <point x="301" y="100" type="curve"/>
      <point x="324" y="80" type="line"/>
      <point x="329" y="58"/>
      <point x="321" y="33"/>
      <point x="327" y="0" type="curve"/>
      <point x="417" y="0" type="line"/>
      <point x="407" y="58"/>
      <point x="397" y="112"/>
      <point x="397" y="190" type="curve" smooth="yes"/>
      <point x="397" y="343" type="line" smooth="yes"/>
      <point x="397" y="473"/>
      <point x="341" y="538"/>
      <point x="230" y="538" type="curve" smooth="yes"/>
    </contour>
    <contour>
      <point x="189" y="696"/>
      <point x="204" y="715"/>
      <point x="234" y="715" type="curve"/>
      <point x="266" y="715"/>
      <point x="281" y="696"/>
      <point x="281" y="668" type="curve" smooth="yes"/>
      <point x="281" y="639"/>
      <point x="268" y="614"/>
      <point x="234" y="614" type="curve"/>
      <point x="202" y="614"/>
      <point x="189" y="639"/>
      <point x="189" y="668" type="curve" smooth="yes"/>
    </contour>
    <contour>
      <point x="126" y="602"/>
      <point x="167" y="560"/>
      <point x="234" y="560" type="curve"/>
      <point x="302" y="560"/>
      <point x="344" y="602"/>
      <point x="344" y="668" type="curve" smooth="yes"/>
      <point x="344" y="729"/>
      <point x="306" y="770"/>
      <point x="234" y="770" type="curve" smooth="yes"/>
      <point x="163" y="770"/>
      <point x="126" y="729"/>
      <point x="126" y="668" type="curve" smooth="yes"/>
    </contour>
    <contour>
      <point x="341" y="305" type="line"/>
      <point x="299" y="316"/>
      <point x="263" y="324"/>
      <point x="207" y="324" type="curve" smooth="yes"/>
      <point x="100" y="324"/>
      <point x="32" y="273"/>
      <point x="32" y="167" type="curve" smooth="yes"/>
      <point x="32" y="53"/>
      <point x="93" y="-12"/>
      <point x="180" y="-12" type="curve" smooth="yes"/>
      <point x="252" y="-12"/>
      <point x="304" y="26"/>
      <point x="329" y="61" type="curve"/>
      <point x="324" y="94" type="line"/>
      <point x="309" y="117" type="line"/>
      <point x="284" y="92"/>
      <point x="248" y="69"/>
      <point x="207" y="69" type="curve"/>
      <point x="154" y="69"/>
      <point x="134" y="106"/>
      <point x="134" y="167" type="curve"/>
      <point x="134" y="233"/>
      <point x="162" y="254"/>
      <point x="235" y="254" type="curve" smooth="yes"/>
      <point x="271" y="254"/>
      <point x="303" y="246"/>
      <point x="341" y="246" type="curve"/>
    </contour>
  </outline>
</glyph>
<glyph name="divide" format="1">
  <advance width="439"/>
  <unicode hex="00F7"/>
  <outline>
    <contour>
      <point x="175" y="426" type="line"/>
      <point x="264" y="426" type="line"/>
      <point x="264" y="527" type="line"/>
      <point x="264" y="527"/>
      <point x="175" y="527"/>
      <point x="175" y="527" type="curve"/>
    </contour>
    <contour>
      <point x="175" y="112" type="line"/>
      <point x="264" y="112" type="line"/>
      <point x="264" y="213" type="line"/>
      <point x="264" y="213"/>
      <point x="175" y="213"/>
      <point x="175" y="213" type="curve"/>
    </contour>
    <contour>
      <point x="409" y="362" type="line"/>
      <point x="30" y="362" type="line"/>
      <point x="30" y="277" type="line"/>
      <point x="409" y="277" type="line"/>
    </contour>
  </outline>
</glyph>
<glyph name="circumflex" format="1">
  <advance width="264"/>
  <unicode hex="02C6"/>
  <outline>
    <contour>
      <point x="107" y="732" type="line"/>
      <point x="12" y="589" type="line"/>
      <point x="94" y="589" type="line"/>
      <point x="186" y="706" type="line"/>
      <point x="156" y="706" type="line"/>
      <point x="248" y="589" type="line"/>
      <point x="330" y="589" type="line"/>
      <point x="235" y="732" type="line"/>
    </contour>
  </outline>
</glyph>
<glyph name="emdash" format="1">
  <advance width="533"/>
  <unicode hex="2014"/>
  <outline>
    <contour>
      <point x="478" y="334" type="line"/>
      <point x="55" y="334" type="line"/>
      <point x="55" y="238" type="line"/>
      <point x="478" y="238" type="line"/>
    </contour>
  </outline>
</glyph>
